<svg width="20" height="20" viewBox="0 0 20 20" fill="none" xmlns="http://www.w3.org/2000/svg">
<g clip-path="url(#clip0_10238_100)">
<path d="M15 1.8182C14.7246 1.8182 14.4367 1.85463 14.1378 1.91016C13.1366 0.74314 11.6547 0 10 0C8.34537 0 6.86336 0.74314 5.86228 1.91012C5.5633 1.85463 5.27544 1.81815 5.00003 1.81815C2.24297 1.8182 0 4.06117 0 6.81819C0 8.70738 1.06534 10.4248 2.73793 11.274L2.72906 18.1432C2.72864 18.639 2.92125 19.1051 3.27149 19.4558C3.62216 19.8069 4.0878 20 4.58365 20H15.4182C16.4409 20 17.2728 19.1681 17.2728 18.1454V11.2673C18.9391 10.4159 20 8.70116 20 6.81819C20 4.06117 17.757 1.8182 15 1.8182Z" fill="#F97316"/>
<path d="M15.4168 19.0906H4.58223C4.32966 19.0906 4.09217 18.992 3.91328 18.8131C3.73482 18.6342 3.63629 18.3968 3.63672 18.1438L3.63906 16.3633H16.3622V18.1451C16.3622 18.6662 15.9379 19.0906 15.4168 19.0906Z" fill="#F5F5F5"/>
<path opacity="0.2" d="M4.5458 18.1437L4.5478 16.3633H3.63906L3.63672 18.1437C3.63629 18.3968 3.73482 18.6342 3.91328 18.8131C4.09217 18.992 4.32966 19.0905 4.58223 19.0905H5.35622C5.13979 19.0905 4.93618 18.9919 4.7829 18.8131C4.62987 18.6342 4.54541 18.3968 4.5458 18.1437Z" fill="#FCFCFC"/>
<path d="M15.4549 16.3633V18.1451C15.4549 18.6662 15.0912 19.0906 14.6445 19.0906H15.4185C15.9396 19.0906 16.364 18.6663 16.364 18.1451V16.3633H15.4549Z" fill="black" fill-opacity="0.06"/>
<path d="M16.6461 10.5599C16.6222 10.5696 16.5995 10.5812 16.5782 10.5949C16.5222 10.6296 16.4746 10.6763 16.4388 10.7316C16.4026 10.7866 16.379 10.8489 16.3696 10.9141C16.3657 10.9393 16.3641 10.9649 16.3647 10.9904V15.4546H3.64272L3.64855 10.9966C3.65028 10.9182 3.63174 10.8407 3.59471 10.7715C3.55769 10.7024 3.50345 10.644 3.43723 10.602C3.41449 10.5877 3.39059 10.5753 3.36577 10.5651C1.87386 9.91268 0.910156 8.44336 0.910156 6.81829C0.910156 4.56241 2.74523 2.72738 5.00107 2.72738C5.08924 2.72738 5.1823 2.73803 5.27363 2.74523C4.81374 3.54454 4.54651 4.4681 4.54651 5.45465C4.54651 5.7059 4.74982 5.90921 5.00107 5.90921C5.25232 5.90921 5.45563 5.7059 5.45563 5.45465C5.45563 2.94841 7.49486 0.90918 10.0011 0.90918C12.5073 0.90918 14.5465 2.94846 14.5465 5.45465C14.5465 5.51436 14.5582 5.57348 14.5811 5.62865C14.6039 5.68382 14.6374 5.73394 14.6796 5.77616C14.7218 5.81838 14.7719 5.85186 14.8271 5.87469C14.8823 5.89752 14.9414 5.90925 15.0011 5.90921C15.0608 5.90925 15.1199 5.89752 15.1751 5.87469C15.2303 5.85186 15.2804 5.81838 15.3226 5.77616C15.3648 5.73394 15.3983 5.68382 15.4211 5.62865C15.444 5.57348 15.4557 5.51436 15.4556 5.45465C15.4556 4.4681 15.1884 3.54454 14.7285 2.74523C14.8199 2.73803 14.9129 2.72738 15.0011 2.72738C17.257 2.72738 19.092 4.56245 19.092 6.81829C19.092 8.43761 18.1323 9.90514 16.6461 10.5599Z" fill="#FCFCFC"/>
<path opacity="0.2" d="M9.99952 1.47739C12.0864 1.47739 13.8405 2.79965 14.46 4.61393C14.0636 2.5089 12.2179 0.90918 9.99952 0.90918C7.78118 0.90918 5.93541 2.50885 5.53906 4.61393C6.15849 2.79961 7.91264 1.47739 9.99952 1.47739Z" fill="#FCFCFC"/>
<path d="M14.9991 2.72754C14.911 2.72754 14.8179 2.73819 14.7266 2.74539C14.7299 2.75123 14.7322 2.75767 14.7355 2.76346C16.5814 2.94696 18.0389 4.68436 18.0389 6.81841C18.0389 8.43773 17.1902 9.90526 15.8759 10.56C15.8547 10.5697 15.8347 10.5813 15.8158 10.595C15.7652 10.6305 15.7236 10.6776 15.6926 10.7317C15.6602 10.7879 15.6394 10.8499 15.6313 10.9142C15.6279 10.9395 15.6264 10.965 15.6269 10.9905V15.4547H16.3628V10.9905C16.3623 10.9648 16.3637 10.9395 16.3677 10.9142C16.3771 10.849 16.4007 10.7867 16.4369 10.7317C16.4727 10.6764 16.5203 10.6297 16.5763 10.595C16.5978 10.5813 16.6205 10.5695 16.6442 10.56C18.1303 9.9053 19.09 8.43777 19.09 6.81845C19.09 4.56261 17.255 2.72754 14.9991 2.72754Z" fill="black" fill-opacity="0.06"/>
<path opacity="0.2" d="M4.37912 10.9222C4.3709 10.8558 4.34927 10.7918 4.31554 10.734C4.2849 10.6821 4.24485 10.6368 4.19618 10.6022C4.17627 10.588 4.15512 10.5757 4.13299 10.5653C2.81358 9.91284 1.96131 8.44352 1.96131 6.81845C1.96131 4.6844 3.41878 2.947 5.26472 2.76351C5.26804 2.75767 5.27034 2.75123 5.27367 2.74544C5.1823 2.73819 5.08924 2.72754 5.00107 2.72754C2.74519 2.72754 0.910156 4.56261 0.910156 6.81845C0.910156 8.44352 1.87386 9.91284 3.36577 10.5653C3.39061 10.5756 3.4146 10.588 3.43723 10.6022C3.49102 10.6361 3.53702 10.6811 3.57219 10.734C3.62394 10.8118 3.6506 10.9035 3.64855 10.9968L3.64272 15.4549H4.37793L4.38308 10.9968C4.38356 10.9719 4.38224 10.947 4.37912 10.9222Z" fill="#FCFCFC"/>
<path d="M5.45599 9.54538C5.45599 9.29413 5.25269 9.09082 5.00143 9.09082C4.75018 9.09082 4.54688 9.29413 4.54688 9.54538C4.54688 10.739 5.86347 12.3779 6.01351 12.5612C6.09014 12.6543 6.20054 12.7131 6.32052 12.725C6.44049 12.7368 6.56025 12.7005 6.65357 12.6242C6.84754 12.4648 6.8755 12.1786 6.71659 11.9841C6.22926 11.3902 5.45599 10.2033 5.45599 9.54538ZM15.0015 9.09082C14.9418 9.09078 14.8826 9.10251 14.8275 9.12534C14.7723 9.14817 14.7222 9.18165 14.6799 9.22387C14.6377 9.26609 14.6042 9.31621 14.5814 9.37138C14.5586 9.42655 14.5469 9.48568 14.5469 9.54538C14.5469 10.201 13.7736 11.3893 13.2863 11.9846C13.1273 12.1786 13.1557 12.4649 13.3498 12.6242C13.4309 12.691 13.5327 12.7274 13.6378 12.7272C13.705 12.7273 13.7714 12.7124 13.8322 12.6837C13.893 12.655 13.9467 12.6131 13.9894 12.5612C14.1394 12.3779 15.456 10.739 15.456 9.54538C15.4561 9.48568 15.4443 9.42655 15.4215 9.37138C15.3987 9.31621 15.3652 9.26609 15.323 9.22387C15.2807 9.18165 15.2306 9.14817 15.1755 9.12534C15.1203 9.10251 15.0612 9.09078 15.0015 9.09082ZM10.0015 9.09082C9.94176 9.09078 9.88264 9.10251 9.82747 9.12534C9.7723 9.14817 9.72217 9.18165 9.67996 9.22387C9.63774 9.26609 9.60426 9.31621 9.58143 9.37138C9.5586 9.42655 9.54687 9.48568 9.54691 9.54538V12.2727C9.54691 12.5239 9.75022 12.7272 10.0015 12.7272C10.2527 12.7272 10.456 12.5239 10.456 12.2727V9.54538C10.4561 9.48568 10.4443 9.42656 10.4215 9.3714C10.3986 9.31623 10.3652 9.26611 10.323 9.2239C10.2807 9.18168 10.2306 9.1482 10.1755 9.12536C10.1203 9.10253 10.0612 9.09079 10.0015 9.09082Z" fill="#F97316"/>
</g>
<defs>
<clipPath id="clip0_10238_100">
<rect width="20" height="20" fill="white"/>
</clipPath>
</defs>
</svg>
