<svg width="140" height="32" viewBox="0 0 140 32" fill="none" xmlns="http://www.w3.org/2000/svg">
<defs>
<linearGradient id="potGradient" x1="3" y1="5" x2="22" y2="27" gradientUnits="userSpaceOnUse">
<stop offset="0%" stop-color="#FDBA74"/>
<stop offset="50%" stop-color="#F97316"/>
<stop offset="100%" stop-color="#EA580C"/>
</linearGradient>
<clipPath id="clip0_10238_117">
<rect width="22" height="22" fill="white" transform="translate(3 5)"/>
</clipPath>
</defs>
<path d="M132.049 20.6105C131.873 20.6105 131.719 20.5576 131.59 20.4518C131.46 20.346 131.36 20.1933 131.289 19.9934C131.219 19.7936 131.183 19.5703 131.183 19.3235C131.183 18.5596 131.171 17.8074 131.148 17.0669C131.124 16.3265 131.077 15.6448 131.006 15.0219C130.948 14.399 130.859 13.8877 130.741 13.4881C130.671 13.2178 130.618 13.0062 130.582 12.8534C130.559 12.7006 130.547 12.5478 130.547 12.3951C130.547 12.1835 130.6 12.0131 130.706 11.8838C130.824 11.7428 131.001 11.6722 131.236 11.6722C131.448 11.6722 131.637 11.7721 131.802 11.9719C131.979 12.16 132.126 12.495 132.244 12.9768C132.362 13.447 132.444 14.1051 132.491 14.9514C132.538 15.7976 132.55 16.8671 132.527 18.16L131.961 17.6487C132.043 16.5086 132.226 15.5508 132.509 14.7751C132.803 13.9876 133.151 13.3588 133.552 12.8887C133.964 12.4186 134.4 12.0777 134.86 11.8662C135.319 11.6546 135.773 11.5488 136.221 11.5488C136.515 11.5488 136.716 11.6193 136.822 11.7604C136.94 11.9014 136.999 12.0718 136.999 12.2716C136.999 12.4362 136.946 12.5949 136.839 12.7476C136.733 12.8887 136.551 12.9945 136.292 13.065C135.679 13.206 135.172 13.4587 134.771 13.8231C134.371 14.1757 134.041 14.6223 133.782 15.1629C133.534 15.6918 133.34 16.2971 133.198 16.9788C133.069 17.6605 132.974 18.4009 132.915 19.2001C132.892 19.5762 132.845 19.87 132.774 20.0816C132.715 20.2814 132.627 20.4166 132.509 20.4871C132.391 20.5694 132.238 20.6105 132.049 20.6105Z" fill="#F97316"/>
<path d="M124.275 20.5752C123.379 20.5752 122.649 20.4106 122.083 20.0815C121.529 19.7407 121.117 19.2823 120.846 18.7064C120.587 18.1188 120.457 17.4488 120.457 16.6966C120.457 16.0972 120.563 15.4978 120.775 14.8984C120.999 14.2873 121.317 13.7349 121.73 13.2412C122.142 12.7358 122.637 12.3304 123.214 12.0248C123.792 11.7192 124.44 11.5664 125.159 11.5664C125.713 11.5664 126.196 11.6663 126.608 11.8661C127.021 12.0659 127.339 12.3656 127.563 12.7652C127.798 13.1531 127.916 13.6467 127.916 14.2461C127.916 14.8808 127.722 15.4214 127.333 15.868C126.956 16.3029 126.437 16.6379 125.777 16.8729C125.118 17.108 124.375 17.2255 123.55 17.2255C122.843 17.2255 122.348 17.1315 122.066 16.9435C121.783 16.7437 121.641 16.5262 121.641 16.2912C121.641 16.1501 121.677 16.0502 121.747 15.9915C121.818 15.9209 121.936 15.8857 122.101 15.8857C122.23 15.8857 122.39 15.9092 122.578 15.9562C122.778 15.9915 123.061 16.0091 123.427 16.0091C124.016 16.0091 124.528 15.9386 124.964 15.7975C125.412 15.6447 125.766 15.4332 126.025 15.1629C126.284 14.8925 126.414 14.5811 126.414 14.2285C126.414 13.8289 126.314 13.5292 126.113 13.3294C125.913 13.1296 125.583 13.0297 125.123 13.0297C124.664 13.0297 124.24 13.1354 123.851 13.347C123.474 13.5586 123.144 13.8465 122.861 14.2109C122.59 14.5752 122.378 14.9924 122.225 15.4626C122.071 15.9209 121.995 16.4028 121.995 16.9082C121.995 17.3313 122.066 17.7133 122.207 18.0541C122.348 18.3832 122.578 18.6535 122.896 18.8651C123.214 19.0649 123.645 19.1648 124.187 19.1648C124.823 19.1648 125.353 19.0884 125.777 18.9356C126.213 18.7828 126.573 18.6124 126.856 18.4244C127.138 18.2245 127.374 18.0541 127.563 17.9131C127.763 17.7603 127.946 17.6839 128.111 17.6839C128.276 17.6839 128.388 17.7309 128.446 17.8249C128.505 17.919 128.535 18.0718 128.535 18.2833C128.535 18.5184 128.417 18.7711 128.181 19.0414C127.957 19.3 127.645 19.5468 127.245 19.7818C126.844 20.0169 126.39 20.2108 125.883 20.3636C125.377 20.5047 124.841 20.5752 124.275 20.5752Z" fill="#F97316"/>
<path d="M118.351 20.5219C117.986 20.5219 117.562 20.4396 117.078 20.2751C116.607 20.1106 116.124 19.8872 115.629 19.6052C115.134 19.3113 114.675 18.9881 114.25 18.6355C113.838 18.2829 113.502 17.9127 113.243 17.5249C112.995 17.1253 112.872 16.7374 112.872 16.3613C112.872 15.9735 113.001 15.5621 113.26 15.1272C113.52 14.6806 113.85 14.2516 114.25 13.8403C114.663 13.4172 115.105 13.0352 115.576 12.6943C116.047 12.3417 116.501 12.0655 116.937 11.8657C117.373 11.6659 117.732 11.566 118.015 11.566C118.274 11.566 118.475 11.6248 118.616 11.7423C118.769 11.8481 118.846 12.0127 118.846 12.236C118.846 12.4593 118.775 12.6414 118.634 12.7825C118.492 12.9235 118.269 13.0528 117.962 13.1703C117.526 13.3349 117.102 13.5523 116.69 13.8226C116.289 14.093 115.918 14.3809 115.576 14.6865C115.246 14.9921 114.981 15.2859 114.781 15.568C114.592 15.8501 114.498 16.0792 114.498 16.2555C114.498 16.4436 114.616 16.6963 114.851 17.0136C115.099 17.3309 115.476 17.66 115.983 18.0009C116.501 18.3417 117.149 18.6297 117.927 18.8647C118.398 19.0058 118.705 19.1644 118.846 19.3407C118.999 19.5053 119.076 19.6816 119.076 19.8696C119.076 20.0694 119.011 20.2281 118.881 20.3456C118.764 20.4632 118.587 20.5219 118.351 20.5219ZM112.076 20.5748C111.899 20.5748 111.729 20.5102 111.564 20.3809C111.399 20.2516 111.263 20.0224 111.157 19.6933C111.063 19.3642 111.016 18.8882 111.016 18.2653C111.016 17.7952 111.057 17.1723 111.139 16.3966C111.234 15.6091 111.346 14.7394 111.475 13.7874C111.605 12.8354 111.729 11.8657 111.846 10.8785C111.917 10.3143 111.964 9.86771 111.988 9.53862C112.023 9.19778 112.047 8.92746 112.058 8.72766C112.07 8.5161 112.076 8.33981 112.076 8.19877C112.076 8.04598 112.094 7.87556 112.129 7.68751C112.141 7.47595 112.212 7.31141 112.341 7.19388C112.471 7.07634 112.642 7.01758 112.854 7.01758C113.09 7.01758 113.266 7.12923 113.384 7.35254C113.502 7.5641 113.567 7.94607 113.579 8.49847C113.602 9.03912 113.549 9.80895 113.42 10.808C113.313 11.5837 113.213 12.2653 113.119 12.853C113.037 13.4289 112.96 13.9343 112.889 14.3692C112.819 14.804 112.76 15.2095 112.712 15.5856C112.677 15.95 112.648 16.3143 112.624 16.6786C112.601 17.0312 112.589 17.4191 112.589 17.8422C112.589 18.2418 112.601 18.5944 112.624 18.9C112.659 19.1938 112.677 19.4994 112.677 19.8167C112.677 20.0753 112.624 20.2692 112.518 20.3985C112.412 20.516 112.265 20.5748 112.076 20.5748Z" fill="#F97316"/>
<path d="M104.572 20.6103C103.677 20.6103 102.876 20.4222 102.169 20.0461C101.473 19.6583 100.925 19.1294 100.525 18.4595C100.136 17.7778 99.9414 17.0021 99.9414 16.1323C99.9414 15.4742 100.059 14.8806 100.295 14.3517C100.542 13.8111 100.849 13.3469 101.214 12.959C101.579 12.5711 101.945 12.2773 102.31 12.0775C102.687 11.866 103.005 11.7602 103.264 11.7602C103.394 11.7602 103.5 11.7778 103.583 11.8131C103.677 11.8483 103.753 11.9071 103.812 11.9894C103.871 12.0599 103.901 12.1598 103.901 12.2891C103.901 12.5241 103.848 12.7357 103.742 12.9237C103.647 13.1118 103.447 13.2881 103.141 13.4526C102.764 13.6759 102.457 13.9228 102.222 14.1931C101.986 14.4516 101.809 14.7396 101.691 15.0569C101.573 15.3625 101.515 15.6975 101.515 16.0618C101.515 17.0138 101.786 17.7778 102.328 18.3537C102.87 18.9178 103.6 19.1999 104.519 19.1999C105.297 19.1999 105.922 18.9061 106.393 18.3184C106.864 17.719 107.1 16.9257 107.1 15.9384C107.1 15.0334 106.894 14.3282 106.481 13.8229C106.081 13.3057 105.527 13.0471 104.82 13.0471C104.443 13.0471 104.142 13.1177 103.918 13.2587C103.695 13.3997 103.465 13.5878 103.229 13.8229C103.041 13.9991 102.899 14.1578 102.805 14.2989C102.722 14.4399 102.634 14.5515 102.54 14.6338C102.445 14.7043 102.322 14.7396 102.169 14.7396C102.004 14.7396 101.868 14.6926 101.762 14.5986C101.668 14.4928 101.621 14.3165 101.621 14.0697C101.621 13.7993 101.703 13.5231 101.868 13.2411C102.045 12.9472 102.275 12.6828 102.557 12.4477C102.852 12.2009 103.176 12.0011 103.53 11.8483C103.883 11.6955 104.254 11.6191 104.643 11.6191C105.48 11.6191 106.199 11.8013 106.8 12.1657C107.401 12.5183 107.86 13.0236 108.178 13.6818C108.508 14.3282 108.673 15.0981 108.673 15.9913C108.673 16.861 108.491 17.6485 108.125 18.3537C107.772 19.0471 107.289 19.5995 106.676 20.0109C106.063 20.4105 105.362 20.6103 104.572 20.6103Z" fill="#F97316"/>
<path d="M93.6779 20.6103C92.7824 20.6103 91.9811 20.4222 91.274 20.0461C90.5788 19.6583 90.0308 19.1294 89.6302 18.4595C89.2413 17.7778 89.0469 17.0021 89.0469 16.1323C89.0469 15.4742 89.1647 14.8806 89.4004 14.3517C89.6479 13.8111 89.9542 13.3469 90.3195 12.959C90.6848 12.5711 91.0501 12.2773 91.4154 12.0775C91.7925 11.866 92.1107 11.7602 92.3699 11.7602C92.4995 11.7602 92.6056 11.7778 92.6881 11.8131C92.7824 11.8483 92.859 11.9071 92.9179 11.9894C92.9768 12.0599 93.0063 12.1598 93.0063 12.2891C93.0063 12.5241 92.9532 12.7357 92.8472 12.9237C92.7529 13.1118 92.5526 13.2881 92.2462 13.4526C91.8691 13.6759 91.5627 13.9228 91.3271 14.1931C91.0914 14.4516 90.9146 14.7396 90.7968 15.0569C90.6789 15.3625 90.62 15.6975 90.62 16.0618C90.62 17.0138 90.891 17.7778 91.4331 18.3537C91.9752 18.9178 92.7058 19.1999 93.6249 19.1999C94.4026 19.1999 95.0272 18.9061 95.4985 18.3184C95.9699 17.719 96.2056 16.9257 96.2056 15.9384C96.2056 15.0334 95.9994 14.3282 95.5869 13.8229C95.1863 13.3057 94.6324 13.0471 93.9254 13.0471C93.5483 13.0471 93.2478 13.1177 93.0239 13.2587C92.8 13.3997 92.5703 13.5878 92.3346 13.8229C92.146 13.9991 92.0046 14.1578 91.9104 14.2989C91.8279 14.4399 91.7395 14.5515 91.6452 14.6338C91.5509 14.7043 91.4272 14.7396 91.274 14.7396C91.1091 14.7396 90.9735 14.6926 90.8675 14.5986C90.7732 14.4928 90.7261 14.3165 90.7261 14.0697C90.7261 13.7993 90.8086 13.5231 90.9735 13.2411C91.1503 12.9472 91.3801 12.6828 91.6629 12.4477C91.9575 12.2009 92.2815 12.0011 92.6351 11.8483C92.9886 11.6955 93.3598 11.6191 93.7486 11.6191C94.5853 11.6191 95.3041 11.8013 95.9051 12.1657C96.5061 12.5183 96.9656 13.0236 97.2838 13.6818C97.6137 14.3282 97.7787 15.0981 97.7787 15.9913C97.7787 16.861 97.5961 17.6485 97.2308 18.3537C96.8773 19.0471 96.3941 19.5995 95.7814 20.0109C95.1686 20.4105 94.4674 20.6103 93.6779 20.6103Z" fill="#F97316"/>
<path d="M84.3699 20.5575C83.5333 20.5575 82.8145 20.393 82.2135 20.0639C81.6125 19.7231 81.147 19.2529 80.8171 18.6535C80.4989 18.0424 80.3398 17.3313 80.3398 16.5203C80.3398 15.8269 80.4754 15.1805 80.7464 14.5811C81.0292 13.9817 81.4122 13.4587 81.8953 13.012C82.3784 12.5537 82.9382 12.2011 83.5745 11.9543C84.2108 11.6957 84.8825 11.5664 85.5896 11.5664C85.8252 11.5664 86.0432 11.6017 86.2436 11.6722C86.4557 11.731 86.6206 11.8367 86.7385 11.9895C86.8681 12.1423 86.9329 12.3597 86.9329 12.6418C86.9329 12.8534 86.8799 13.0297 86.7738 13.1707C86.6796 13.3117 86.5323 13.3823 86.3319 13.3823C86.2023 13.3823 86.0963 13.3646 86.0138 13.3294C85.9431 13.2824 85.8606 13.2412 85.7663 13.206C85.6838 13.159 85.5424 13.1354 85.3421 13.1354C84.694 13.1354 84.1107 13.2882 83.5922 13.5938C83.0855 13.8994 82.6789 14.3166 82.3726 14.8455C82.078 15.3744 81.9307 15.9797 81.9307 16.6614C81.9307 17.1433 82.0249 17.5605 82.2135 17.9131C82.4138 18.2657 82.6966 18.5419 83.0619 18.7417C83.439 18.9415 83.875 19.0414 84.3699 19.0414C84.8884 19.0414 85.2832 18.9885 85.5542 18.8827C85.837 18.7652 86.0491 18.6359 86.1905 18.4949C86.3319 18.3421 86.4557 18.2128 86.5617 18.107C86.6678 17.9895 86.8033 17.9307 86.9683 17.9307C87.1332 17.9307 87.2629 17.9836 87.3571 18.0894C87.4514 18.1952 87.4985 18.3421 87.4985 18.5301C87.4985 18.9297 87.3571 19.2823 87.0743 19.5879C86.8033 19.8817 86.4321 20.1168 85.9607 20.2931C85.4894 20.4694 84.9591 20.5575 84.3699 20.5575Z" fill="#F97316"/>
<path d="M70.7363 20.5572C70.536 20.5572 70.3534 20.4867 70.1884 20.3457C70.0352 20.2046 69.9115 19.9872 69.8172 19.6934C69.7229 19.3995 69.6758 19.0293 69.6758 18.5827C69.6758 17.3486 69.7465 16.2438 69.8879 15.2683C70.0293 14.2928 70.1825 13.4055 70.3475 12.6062C70.5242 11.7953 70.6479 11.0548 70.7187 10.3849C70.754 10.0323 70.7658 9.70322 70.754 9.39764C70.754 9.09206 70.7481 8.8041 70.7363 8.53378C70.7363 8.25171 70.7481 7.99314 70.7717 7.75808C70.7952 7.55827 70.8601 7.38198 70.9661 7.22919C71.0722 7.0764 71.243 7 71.4787 7C71.738 7 71.9383 7.0999 72.0797 7.29971C72.2211 7.49951 72.3154 7.82272 72.3625 8.26934C72.4214 8.7042 72.4096 9.29774 72.3271 10.0499C72.2447 10.7904 72.115 11.5896 71.9383 12.4476C71.7733 13.3055 71.6201 14.2164 71.4787 15.1802C71.3491 16.1322 71.2961 17.1194 71.3196 18.142L70.9308 17.8423C71.52 16.2908 72.062 15.0568 72.5569 14.14C73.0636 13.2233 73.5527 12.5651 74.024 12.1655C74.4954 11.7541 74.9667 11.5485 75.4381 11.5485C75.9566 11.5485 76.3513 11.713 76.6224 12.0421C76.8934 12.3712 77.0996 12.8472 77.241 13.4701C77.3824 14.0813 77.4885 14.8158 77.5592 15.6738C77.6417 16.426 77.7183 17.0313 77.789 17.4897C77.8715 17.9363 77.9598 18.2948 78.0541 18.5651C78.1484 18.8236 78.2485 19.0528 78.3546 19.2526C78.4135 19.3467 78.4606 19.4466 78.496 19.5523C78.5314 19.6581 78.549 19.7698 78.549 19.8873C78.549 20.0871 78.4783 20.2516 78.3369 20.3809C78.2073 20.5102 78.0364 20.5749 77.8243 20.5749C77.5297 20.5749 77.2646 20.4103 77.0289 20.0812C76.7932 19.7404 76.5988 19.2938 76.4456 18.7414C76.2924 18.1772 76.1864 17.5719 76.1274 16.9255C76.0685 16.1851 76.0037 15.5798 75.933 15.1097C75.8623 14.6395 75.7798 14.2576 75.6855 13.9637C75.6031 13.6581 75.4911 13.3937 75.3497 13.1704C75.1023 13.1939 74.7664 13.476 74.3422 14.0166C73.9298 14.5573 73.482 15.3212 72.9988 16.3085C72.5275 17.2957 72.0738 18.4769 71.6378 19.852C71.5435 20.1341 71.4198 20.3222 71.2666 20.4162C71.1252 20.5102 70.9484 20.5572 70.7363 20.5572Z" fill="black"/>
<path d="M63.7588 20.5752C63.1814 20.5752 62.6688 20.4929 62.221 20.3284C61.7732 20.1638 61.4138 19.9581 61.1428 19.7113C60.8835 19.4528 60.7539 19.1766 60.7539 18.8827C60.7539 18.7417 60.7893 18.6183 60.86 18.5125C60.9307 18.4067 61.0485 18.3538 61.2135 18.3538C61.3313 18.3538 61.4433 18.3891 61.5493 18.4596C61.6554 18.5301 61.785 18.6124 61.9382 18.7064C62.0914 18.7887 62.2917 18.8651 62.5392 18.9356C62.7984 19.0061 63.146 19.0414 63.582 19.0414C64.2419 19.0414 64.7781 18.8768 65.1905 18.5478C65.603 18.2069 65.8092 17.631 65.8092 16.8201C65.8092 16.2559 65.709 15.7505 65.5087 15.3039C65.3084 14.8455 65.0256 14.4518 64.6603 14.1227C64.3067 13.7936 63.9002 13.5409 63.4406 13.3646C62.9811 13.1883 62.4861 13.1002 61.9559 13.1002C61.6848 13.1002 61.4197 13.1296 61.1604 13.1883C60.9012 13.2471 60.6773 13.2765 60.4888 13.2765C60.3474 13.2765 60.2177 13.2471 60.0999 13.1883C59.9938 13.1178 59.9114 13.0238 59.8524 12.9063C59.7935 12.7887 59.7641 12.6712 59.7641 12.5537C59.7641 12.2363 59.929 11.9954 60.259 11.8309C60.5889 11.6546 61.131 11.5664 61.8852 11.5664C62.6629 11.5664 63.3817 11.6898 64.0416 11.9366C64.7133 12.1834 65.2966 12.5478 65.7915 13.0297C66.2982 13.4998 66.693 14.0698 66.9758 14.7398C67.2586 15.4097 67.4 16.1619 67.4 16.9963C67.4 17.537 67.3116 18.0306 67.1349 18.4772C66.9581 18.9121 66.7048 19.2882 66.3748 19.6055C66.0566 19.9229 65.6737 20.1638 65.2259 20.3284C64.7781 20.4929 64.2891 20.5752 63.7588 20.5752ZM60.5418 25.0002C60.4004 25.0002 60.2708 24.9708 60.1529 24.9121C60.0351 24.8651 59.9467 24.7828 59.8878 24.6653C59.8289 24.5477 59.7994 24.4008 59.7994 24.2245C59.7994 24.0482 59.823 23.8837 59.8701 23.7309C59.929 23.5781 59.9938 23.3959 60.0646 23.1844C60.1353 22.9728 60.1942 22.7025 60.2413 22.3734C60.3002 22.0443 60.3297 21.6212 60.3297 21.1041C60.3297 20.2461 60.2472 19.3881 60.0822 18.5301C59.929 17.6722 59.77 16.8024 59.605 15.9209C59.44 15.0277 59.3516 14.1345 59.3398 13.2412C59.3398 12.9474 59.3929 12.73 59.4989 12.5889C59.6168 12.4361 59.7817 12.3597 59.9938 12.3597C60.1824 12.3597 60.3474 12.4244 60.4888 12.5537C60.642 12.6712 60.7598 12.8357 60.8423 13.0473C60.9366 13.2471 60.9837 13.4704 60.9837 13.7172C60.9837 14.4224 61.0308 15.0923 61.1251 15.727C61.2194 16.3499 61.3313 16.9611 61.4609 17.5605C61.5906 18.1599 61.7025 18.7593 61.7968 19.3587C61.8911 19.9581 61.9382 20.5752 61.9382 21.2098C61.9382 21.7857 61.9087 22.3088 61.8498 22.7789C61.7909 23.249 61.7025 23.6486 61.5847 23.9777C61.4786 24.3068 61.3372 24.5595 61.1604 24.7358C60.9837 24.9121 60.7775 25.0002 60.5418 25.0002Z" fill="black"/>
<path d="M50.7879 20.5751C50.2576 20.5751 49.7922 20.4517 49.3915 20.2049C49.0026 19.9581 48.7021 19.6114 48.49 19.1647C48.2779 18.7181 48.1719 18.1951 48.1719 17.5957C48.1719 17.0316 48.2603 16.4615 48.437 15.8856C48.6138 15.3097 48.8612 14.7632 49.1794 14.2461C49.4976 13.7289 49.8746 13.2706 50.3106 12.871C50.7584 12.4713 51.2475 12.1599 51.7777 11.9366C52.308 11.7015 52.8736 11.584 53.4746 11.584C53.7456 11.584 53.9695 11.6545 54.1463 11.7955C54.3231 11.9366 54.4114 12.1481 54.4114 12.4302C54.4114 12.5712 54.3643 12.6947 54.27 12.8004C54.1875 12.8945 54.0579 12.9532 53.8812 12.9767C53.0563 13.0825 52.3316 13.3705 51.707 13.8406C51.0943 14.3107 50.617 14.8807 50.2753 15.5507C49.9336 16.2206 49.7627 16.9199 49.7627 17.6486C49.7627 17.9894 49.7922 18.3009 49.8511 18.583C49.91 18.8533 50.0396 19.2059 50.2399 19.6407L49.3208 18.4243C49.5918 18.6946 49.8157 18.8709 49.9925 18.9532C50.181 19.0355 50.4344 19.0766 50.7525 19.0766C51.5067 19.0766 52.1784 18.63 52.7676 17.7367C53.3686 16.8435 53.8046 15.5448 54.0756 13.8406C54.1227 13.6173 54.2052 13.4469 54.3231 13.3293C54.4409 13.2 54.6 13.1354 54.8003 13.1354C55.0831 13.1354 55.3247 13.2471 55.525 13.4704C55.7253 13.6819 55.8491 13.964 55.8962 14.3166C56.0023 14.9983 56.1142 15.6094 56.232 16.1501C56.3617 16.679 56.5443 17.1843 56.78 17.6662C57.0157 18.1363 57.3338 18.6359 57.7345 19.1647C57.8405 19.2823 57.8995 19.4174 57.9112 19.5702C57.923 19.723 57.8995 19.8758 57.8405 20.0286C57.7934 20.1696 57.7109 20.2872 57.5931 20.3812C57.487 20.4752 57.3574 20.5222 57.2042 20.5222C57.0392 20.5222 56.9037 20.487 56.7977 20.4165C56.6916 20.3459 56.5914 20.2578 56.4972 20.152C56.2733 19.8347 56.0612 19.5232 55.8608 19.2176C55.6605 18.9003 55.4779 18.5418 55.3129 18.1422C55.1479 17.7309 55.0065 17.249 54.8887 16.6966C54.7708 16.1324 54.6884 15.4684 54.6412 14.7044L55.2245 14.6868C55.0124 16.1324 54.6707 17.2901 54.1993 18.1599C53.728 19.0178 53.1918 19.6349 52.5908 20.011C51.9898 20.3871 51.3889 20.5751 50.7879 20.5751Z" fill="black"/>
<path d="M42.6157 20.6105C42.439 20.6105 42.2858 20.5576 42.1562 20.4518C42.0265 20.346 41.9264 20.1933 41.8557 19.9934C41.785 19.7936 41.7496 19.5703 41.7496 19.3235C41.7496 18.5596 41.7378 17.8074 41.7143 17.0669C41.6907 16.3265 41.6436 15.6448 41.5729 15.0219C41.5139 14.399 41.4256 13.8877 41.3077 13.4881C41.237 13.2178 41.184 13.0062 41.1486 12.8534C41.1251 12.7006 41.1133 12.5478 41.1133 12.3951C41.1133 12.1835 41.1663 12.0131 41.2724 11.8838C41.3902 11.7428 41.567 11.6722 41.8026 11.6722C42.0147 11.6722 42.2033 11.7721 42.3683 11.9719C42.545 12.16 42.6923 12.495 42.8102 12.9768C42.928 13.447 43.0105 14.1051 43.0576 14.9514C43.1048 15.7976 43.1165 16.8671 43.093 18.16L42.5273 17.6487C42.6098 16.5086 42.7925 15.5508 43.0753 14.7751C43.3699 13.9876 43.7175 13.3588 44.1182 12.8887C44.5306 12.4186 44.9666 12.0777 45.4262 11.8662C45.8857 11.6546 46.3394 11.5488 46.7872 11.5488C47.0818 11.5488 47.2821 11.6193 47.3882 11.7604C47.506 11.9014 47.5649 12.0718 47.5649 12.2716C47.5649 12.4362 47.5119 12.5949 47.4059 12.7476C47.2998 12.8887 47.1172 12.9945 46.8579 13.065C46.2452 13.206 45.7384 13.4587 45.3378 13.8231C44.9371 14.1757 44.6072 14.6223 44.348 15.1629C44.1005 15.6918 43.9061 16.2971 43.7647 16.9788C43.635 17.6605 43.5408 18.4009 43.4818 19.2001C43.4583 19.5762 43.4111 19.87 43.3404 20.0816C43.2815 20.2814 43.1931 20.4166 43.0753 20.4871C42.9575 20.5694 42.8043 20.6105 42.6157 20.6105Z" fill="black"/>
<path d="M35.833 24.9826C34.961 24.9826 34.2186 24.8827 33.6059 24.6829C32.9931 24.4831 32.5041 24.2186 32.1388 23.8896C31.7853 23.5605 31.526 23.2079 31.361 22.8318C31.1961 22.4674 31.1136 22.1266 31.1136 21.8093C31.1136 21.5037 31.1961 21.2451 31.361 21.0335C31.526 20.822 31.7322 20.7162 31.9797 20.7162C32.18 20.7162 32.3214 20.7632 32.4039 20.8572C32.4864 20.963 32.5276 21.1099 32.5276 21.298C32.5276 21.7329 32.6632 22.1148 32.9342 22.4439C33.2052 22.773 33.5764 23.0257 34.0478 23.202C34.5191 23.39 35.0671 23.4841 35.6916 23.4841C36.3986 23.4841 36.8818 23.2784 37.141 22.867C37.4003 22.4674 37.5299 21.8915 37.5299 21.1393C37.5299 20.4929 37.4886 19.9052 37.4062 19.3764C37.3237 18.8475 37.2176 18.348 37.088 17.8778C36.9702 17.4077 36.8582 16.9435 36.7522 16.4851C36.6461 16.0267 36.5636 15.539 36.5047 15.0218L37.1764 15.1981C37.0703 15.8563 36.8995 16.4263 36.6638 16.9082C36.4281 17.3783 36.1335 17.7662 35.78 18.0718C35.4383 18.3773 35.0494 18.6065 34.6134 18.7593C34.1892 18.9004 33.7414 18.9709 33.27 18.9709C32.6101 18.9709 32.0327 18.8475 31.5378 18.6007C31.0429 18.3538 30.6599 17.9954 30.3889 17.5252C30.1296 17.0551 30 16.4733 30 15.7799C30 15.2158 30.1119 14.681 30.3358 14.1756C30.5597 13.6702 30.8661 13.2236 31.255 12.8357C31.6556 12.4361 32.1034 12.1247 32.5983 11.9014C33.0933 11.6781 33.6118 11.5664 34.1538 11.5664C34.7548 11.5664 35.2261 11.6604 35.5679 11.8485C35.9214 12.0248 36.1747 12.254 36.3279 12.536C36.4811 12.8181 36.5577 13.1061 36.5577 13.3999C36.5577 13.5644 36.5106 13.7231 36.4163 13.8759C36.322 14.0287 36.2101 14.1051 36.0805 14.1051C35.9155 14.1051 35.7859 14.0522 35.6916 13.9464C35.6091 13.8406 35.5207 13.7231 35.4265 13.5938C35.344 13.4528 35.2261 13.3294 35.073 13.2236C34.9198 13.1178 34.6959 13.0649 34.4013 13.0649C34.0242 13.0649 33.6648 13.1413 33.323 13.2941C32.9813 13.4469 32.6749 13.6526 32.4039 13.9112C32.1447 14.1697 31.9384 14.4636 31.7853 14.7926C31.6438 15.1217 31.5731 15.4567 31.5731 15.7975C31.5731 16.3382 31.7087 16.7554 31.9797 17.0492C32.2507 17.3313 32.6808 17.4724 33.27 17.4724C33.8239 17.4724 34.3247 17.3254 34.7725 17.0316C35.232 16.726 35.5914 16.2441 35.8507 15.586C36.1217 14.9278 36.2572 14.0639 36.2572 12.9944C36.2572 12.7241 36.2985 12.5302 36.381 12.4126C36.4752 12.2833 36.6461 12.2187 36.8936 12.2187C37.2353 12.2187 37.4886 12.3539 37.6536 12.6242C37.8304 12.8945 37.9305 13.2001 37.9541 13.5409C38.013 14.2696 38.1014 14.9278 38.2192 15.5155C38.3489 16.0914 38.4785 16.6614 38.6081 17.2255C38.7495 17.7779 38.8615 18.3832 38.944 19.0414C39.0382 19.6878 39.0854 20.4459 39.0854 21.3156C39.0854 22.4557 38.8025 23.3489 38.2369 23.9953C37.6713 24.6535 36.87 24.9826 35.833 24.9826Z" fill="black"/>
<g clip-path="url(#clip0_10238_117)">
<path d="M19.5 7.00002C19.197 7.00002 18.8804 7.0401 18.5515 7.10117C17.4503 5.81745 15.8201 5 14 5C12.1799 5 10.5497 5.81745 9.4485 7.10113C9.11963 7.0401 8.80299 6.99997 8.50003 6.99997C5.46727 7.00002 3 9.46728 3 12.5C3 14.5781 4.17188 16.4673 6.01172 17.4014L6.00197 24.9575C6.0015 25.5029 6.21338 26.0156 6.59864 26.4014C6.98438 26.7876 7.49658 27 8.04202 27H19.96C21.085 27 22 26.085 22 24.96V17.394C23.833 16.4575 25 14.5713 25 12.5C25 9.46728 22.5327 7.00002 19.5 7.00002Z" fill="url(#potGradient)"/>
<path d="M19.9619 26H8.04397C7.76614 26 7.50491 25.8916 7.30813 25.6948C7.11181 25.4981 7.00344 25.2368 7.00391 24.9585L7.00649 23H21.002V24.96C21.002 25.5332 20.5352 26 19.9619 26Z" fill="#F5F5F5"/>
<path opacity="0.2" d="M8.00389 24.9585L8.0061 23H7.00649L7.00391 24.9585C7.00344 25.2368 7.11181 25.498 7.30813 25.6948C7.50491 25.8916 7.76614 26 8.04397 26H8.89536C8.65728 26 8.43332 25.8915 8.26471 25.6948C8.09638 25.4981 8.00347 25.2368 8.00389 24.9585Z" fill="#FCFCFC"/>
<path d="M20.0008 23V24.96C20.0008 25.5332 19.6007 26 19.1094 26H19.9608C20.534 26 21.0008 25.5333 21.0008 24.96V23H20.0008Z" fill="black" fill-opacity="0.06"/>
<path d="M21.3096 16.6157C21.2832 16.6265 21.2583 16.6392 21.2349 16.6543C21.1733 16.6925 21.1209 16.7439 21.0815 16.8047C21.0417 16.8652 21.0157 16.9337 21.0054 17.0054C21.0011 17.0332 20.9993 17.0613 21 17.0894V22H7.00581L7.01224 17.0962C7.01414 17.0099 6.99374 16.9246 6.95301 16.8486C6.91229 16.7725 6.85262 16.7083 6.77978 16.6621C6.75477 16.6463 6.72847 16.6328 6.70117 16.6215C5.06008 15.9039 4 14.2876 4 12.5C4 10.0185 6.01858 8.00002 8.5 8.00002C8.59699 8.00002 8.69936 8.01174 8.79982 8.01966C8.29394 8.89889 7.99999 9.91482 7.99999 11C7.99999 11.2764 8.22363 11.5 8.5 11.5C8.77638 11.5 9.00002 11.2764 9.00002 11C9.00002 8.24316 11.2432 6 14 6C16.7569 6 19 8.2432 19 11C19 11.0657 19.0129 11.1307 19.038 11.1914C19.0631 11.2521 19.0999 11.3072 19.1464 11.3537C19.1928 11.4001 19.2479 11.4369 19.3086 11.4621C19.3693 11.4872 19.4343 11.5001 19.5 11.5C19.5657 11.5001 19.6307 11.4872 19.6914 11.4621C19.7521 11.4369 19.8072 11.4001 19.8537 11.3537C19.9001 11.3072 19.937 11.2521 19.9621 11.1914C19.9872 11.1307 20.0001 11.0657 20 11C20 9.91482 19.7061 8.89889 19.2002 8.01966C19.3007 8.01174 19.403 8.00002 19.5 8.00002C21.9815 8.00002 24 10.0186 24 12.5C24 14.2813 22.9444 15.8956 21.3096 16.6157Z" fill="#FCFCFC"/>
<path opacity="0.2" d="M14.0003 6.62503C16.2958 6.62503 18.2253 8.07952 18.9068 10.0752C18.4708 7.75969 16.4404 6 14.0003 6C11.5601 6 9.52973 7.75964 9.09375 10.0752C9.77513 8.07947 11.7047 6.62503 14.0003 6.62503Z" fill="#FCFCFC"/>
<path d="M19.499 8C19.402 8 19.2997 8.01172 19.1992 8.01964C19.2029 8.02606 19.2054 8.03314 19.2091 8.03952C21.2396 8.24136 22.8428 10.1525 22.8428 12.5C22.8428 14.2812 21.9092 15.8955 20.4635 16.6157C20.4402 16.6264 20.4182 16.6391 20.3974 16.6543C20.3417 16.6933 20.296 16.7451 20.2618 16.8046C20.2262 16.8664 20.2033 16.9346 20.1944 17.0053C20.1907 17.0331 20.1891 17.0612 20.1896 17.0893V21.9999H20.999V17.0893C20.9986 17.061 21 17.0331 21.0044 17.0053C21.0148 16.9336 21.0408 16.8651 21.0806 16.8046C21.12 16.7438 21.1723 16.6924 21.2339 16.6543C21.2576 16.6391 21.2826 16.6262 21.3086 16.6157C22.9434 15.8955 23.999 14.2813 23.999 12.5C23.999 10.0186 21.9805 8 19.499 8Z" fill="black" fill-opacity="0.06"/>
<path opacity="0.2" d="M7.81586 17.0142C7.80682 16.9411 7.78303 16.8707 7.74592 16.8071C7.71222 16.75 7.66816 16.7002 7.61463 16.6621C7.59273 16.6465 7.56946 16.6329 7.54511 16.6215C6.09377 15.9038 5.15627 14.2876 5.15627 12.5C5.15627 10.1525 6.75949 8.24141 8.79002 8.03956C8.79368 8.03314 8.79621 8.02606 8.79986 8.01969C8.69936 8.01172 8.59699 8 8.5 8C6.01853 8 4 10.0186 4 12.5C4 14.2876 5.06008 15.9038 6.70117 16.6216C6.7285 16.6328 6.75489 16.6465 6.77978 16.6621C6.83895 16.6995 6.88955 16.7489 6.92824 16.8072C6.98516 16.8927 7.01448 16.9936 7.01224 17.0962L7.00581 22.0001H7.81455L7.82022 17.0962C7.82075 17.0688 7.81929 17.0414 7.81586 17.0142Z" fill="#FCFCFC"/>
<path d="M9.00003 15.5C9.00003 15.2236 8.77639 15 8.50002 15C8.22364 15 8 15.2236 8 15.5C8 16.813 9.44825 18.6158 9.6133 18.8174C9.6976 18.9198 9.81904 18.9845 9.95101 18.9975C10.083 19.0105 10.2147 18.9707 10.3174 18.8867C10.5307 18.7114 10.5615 18.3965 10.3867 18.1826C9.85063 17.5293 9.00003 16.2237 9.00003 15.5ZM19.5 15C19.4344 15 19.3693 15.0129 19.3086 15.038C19.248 15.0631 19.1928 15.0999 19.1464 15.1464C19.0999 15.1928 19.0631 15.2479 19.038 15.3086C19.0129 15.3693 19 15.4343 19 15.5C19 16.2212 18.1494 17.5283 17.6133 18.1831C17.4385 18.3965 17.4697 18.7115 17.6832 18.8867C17.7724 18.9602 17.8845 19.0002 18 19C18.074 19.0001 18.147 18.9837 18.2139 18.9521C18.2808 18.9206 18.3398 18.8745 18.3868 18.8174C18.5518 18.6158 20.0001 16.813 20.0001 15.5C20.0001 15.4343 19.9872 15.3693 19.9621 15.3086C19.937 15.2479 19.9001 15.1928 19.8537 15.1464C19.8073 15.0999 19.7521 15.0631 19.6914 15.038C19.6308 15.0129 19.5657 15 19.5 15ZM14.0001 15C13.9344 15 13.8693 15.0129 13.8087 15.038C13.748 15.0631 13.6928 15.0999 13.6464 15.1464C13.6 15.1928 13.5631 15.2479 13.538 15.3086C13.5129 15.3693 13.5 15.4343 13.5 15.5V18.5C13.5 18.7764 13.7237 19 14.0001 19C14.2764 19 14.5001 18.7764 14.5001 18.5V15.5C14.5001 15.4343 14.4872 15.3693 14.4621 15.3086C14.437 15.248 14.4001 15.1928 14.3537 15.1464C14.3072 15.0999 14.2521 15.0631 14.1914 15.038C14.1308 15.0129 14.0657 15 14.0001 15Z" fill="#F97316"/>
</g>
</svg>
