<svg width="140" height="32" viewBox="0 0 140 32" fill="none" xmlns="http://www.w3.org/2000/svg">
<path d="M131.049 20.6105C130.873 20.6105 130.719 20.5576 130.59 20.4518C130.46 20.346 130.36 20.1933 130.289 19.9934C130.219 19.7936 130.183 19.5703 130.183 19.3235C130.183 18.5596 130.171 17.8074 130.148 17.0669C130.124 16.3265 130.077 15.6448 130.006 15.0219C129.948 14.399 129.859 13.8877 129.741 13.4881C129.671 13.2178 129.618 13.0062 129.582 12.8534C129.559 12.7006 129.547 12.5478 129.547 12.3951C129.547 12.1835 129.6 12.0131 129.706 11.8838C129.824 11.7428 130.001 11.6722 130.236 11.6722C130.448 11.6722 130.637 11.7721 130.802 11.9719C130.979 12.16 131.126 12.495 131.244 12.9768C131.362 13.447 131.444 14.1051 131.491 14.9514C131.538 15.7976 131.55 16.8671 131.527 18.16L130.961 17.6487C131.043 16.5086 131.226 15.5508 131.509 14.7751C131.803 13.9876 132.151 13.3588 132.552 12.8887C132.964 12.4186 133.4 12.0777 133.86 11.8662C134.319 11.6546 134.773 11.5488 135.221 11.5488C135.515 11.5488 135.716 11.6193 135.822 11.7604C135.94 11.9014 135.999 12.0718 135.999 12.2716C135.999 12.4362 135.946 12.5949 135.839 12.7476C135.733 12.8887 135.551 12.9945 135.292 13.065C134.679 13.206 134.172 13.4587 133.771 13.8231C133.371 14.1757 133.041 14.6223 132.782 15.1629C132.534 15.6918 132.34 16.2971 132.198 16.9788C132.069 17.6605 131.974 18.4009 131.915 19.2001C131.892 19.5762 131.845 19.87 131.774 20.0816C131.715 20.2814 131.627 20.4166 131.509 20.4871C131.391 20.5694 131.238 20.6105 131.049 20.6105Z" fill="#F97316"/>
<path d="M123.275 20.5752C122.379 20.5752 121.649 20.4106 121.083 20.0815C120.529 19.7407 120.117 19.2823 119.846 18.7064C119.587 18.1188 119.457 17.4488 119.457 16.6966C119.457 16.0972 119.563 15.4978 119.775 14.8984C119.999 14.2873 120.317 13.7349 120.73 13.2412C121.142 12.7358 121.637 12.3304 122.214 12.0248C122.792 11.7192 123.44 11.5664 124.159 11.5664C124.713 11.5664 125.196 11.6663 125.608 11.8661C126.021 12.0659 126.339 12.3656 126.563 12.7652C126.798 13.1531 126.916 13.6467 126.916 14.2461C126.916 14.8808 126.722 15.4214 126.333 15.868C125.956 16.3029 125.437 16.6379 124.777 16.8729C124.118 17.108 123.375 17.2255 122.55 17.2255C121.843 17.2255 121.348 17.1315 121.066 16.9435C120.783 16.7437 120.641 16.5262 120.641 16.2912C120.641 16.1501 120.677 16.0502 120.747 15.9915C120.818 15.9209 120.936 15.8857 121.101 15.8857C121.23 15.8857 121.39 15.9092 121.578 15.9562C121.778 15.9915 122.061 16.0091 122.427 16.0091C123.016 16.0091 123.528 15.9386 123.964 15.7975C124.412 15.6447 124.766 15.4332 125.025 15.1629C125.284 14.8925 125.414 14.5811 125.414 14.2285C125.414 13.8289 125.314 13.5292 125.113 13.3294C124.913 13.1296 124.583 13.0297 124.123 13.0297C123.664 13.0297 123.24 13.1354 122.851 13.347C122.474 13.5586 122.144 13.8465 121.861 14.2109C121.59 14.5752 121.378 14.9924 121.225 15.4626C121.071 15.9209 120.995 16.4028 120.995 16.9082C120.995 17.3313 121.066 17.7133 121.207 18.0541C121.348 18.3832 121.578 18.6535 121.896 18.8651C122.214 19.0649 122.645 19.1648 123.187 19.1648C123.823 19.1648 124.353 19.0884 124.777 18.9356C125.213 18.7828 125.573 18.6124 125.856 18.4244C126.138 18.2245 126.374 18.0541 126.563 17.9131C126.763 17.7603 126.946 17.6839 127.111 17.6839C127.276 17.6839 127.388 17.7309 127.446 17.8249C127.505 17.919 127.535 18.0718 127.535 18.2833C127.535 18.5184 127.417 18.7711 127.181 19.0414C126.957 19.3 126.645 19.5468 126.245 19.7818C125.844 20.0169 125.39 20.2108 124.883 20.3636C124.377 20.5047 123.841 20.5752 123.275 20.5752Z" fill="#F97316"/>
<path d="M117.351 20.5219C116.986 20.5219 116.562 20.4396 116.078 20.2751C115.607 20.1106 115.124 19.8872 114.629 19.6052C114.134 19.3113 113.675 18.9881 113.25 18.6355C112.838 18.2829 112.502 17.9127 112.243 17.5249C111.995 17.1253 111.872 16.7374 111.872 16.3613C111.872 15.9735 112.001 15.5621 112.26 15.1272C112.52 14.6806 112.85 14.2516 113.25 13.8403C113.663 13.4172 114.105 13.0352 114.576 12.6943C115.047 12.3417 115.501 12.0655 115.937 11.8657C116.373 11.6659 116.732 11.566 117.015 11.566C117.274 11.566 117.475 11.6248 117.616 11.7423C117.769 11.8481 117.846 12.0127 117.846 12.236C117.846 12.4593 117.775 12.6414 117.634 12.7825C117.492 12.9235 117.269 13.0528 116.962 13.1703C116.526 13.3349 116.102 13.5523 115.69 13.8226C115.289 14.093 114.918 14.3809 114.576 14.6865C114.246 14.9921 113.981 15.2859 113.781 15.568C113.592 15.8501 113.498 16.0792 113.498 16.2555C113.498 16.4436 113.616 16.6963 113.851 17.0136C114.099 17.3309 114.476 17.66 114.983 18.0009C115.501 18.3417 116.149 18.6297 116.927 18.8647C117.398 19.0058 117.705 19.1644 117.846 19.3407C117.999 19.5053 118.076 19.6816 118.076 19.8696C118.076 20.0694 118.011 20.2281 117.881 20.3456C117.764 20.4632 117.587 20.5219 117.351 20.5219ZM111.076 20.5748C110.899 20.5748 110.729 20.5102 110.564 20.3809C110.399 20.2516 110.263 20.0224 110.157 19.6933C110.063 19.3642 110.016 18.8882 110.016 18.2653C110.016 17.7952 110.057 17.1723 110.139 16.3966C110.234 15.6091 110.346 14.7394 110.475 13.7874C110.605 12.8354 110.729 11.8657 110.846 10.8785C110.917 10.3143 110.964 9.86771 110.988 9.53862C111.023 9.19778 111.047 8.92746 111.058 8.72766C111.07 8.5161 111.076 8.33981 111.076 8.19877C111.076 8.04598 111.094 7.87556 111.129 7.68751C111.141 7.47595 111.212 7.31141 111.341 7.19388C111.471 7.07634 111.642 7.01758 111.854 7.01758C112.09 7.01758 112.266 7.12923 112.384 7.35254C112.502 7.5641 112.567 7.94607 112.579 8.49847C112.602 9.03912 112.549 9.80895 112.42 10.808C112.313 11.5837 112.213 12.2653 112.119 12.853C112.037 13.4289 111.96 13.9343 111.889 14.3692C111.819 14.804 111.76 15.2095 111.712 15.5856C111.677 15.95 111.648 16.3143 111.624 16.6786C111.601 17.0312 111.589 17.4191 111.589 17.8422C111.589 18.2418 111.601 18.5944 111.624 18.9C111.659 19.1938 111.677 19.4994 111.677 19.8167C111.677 20.0753 111.624 20.2692 111.518 20.3985C111.412 20.516 111.265 20.5748 111.076 20.5748Z" fill="#F97316"/>
<path d="M103.572 20.6103C102.677 20.6103 101.876 20.4222 101.169 20.0461C100.473 19.6583 99.9254 19.1294 99.5247 18.4595C99.1358 17.7778 98.9414 17.0021 98.9414 16.1323C98.9414 15.4742 99.0592 14.8806 99.2949 14.3517C99.5424 13.8111 99.8488 13.3469 100.214 12.959C100.579 12.5711 100.945 12.2773 101.31 12.0775C101.687 11.866 102.005 11.7602 102.264 11.7602C102.394 11.7602 102.5 11.7778 102.583 11.8131C102.677 11.8483 102.753 11.9071 102.812 11.9894C102.871 12.0599 102.901 12.1598 102.901 12.2891C102.901 12.5241 102.848 12.7357 102.742 12.9237C102.647 13.1118 102.447 13.2881 102.141 13.4526C101.764 13.6759 101.457 13.9228 101.222 14.1931C100.986 14.4516 100.809 14.7396 100.691 15.0569C100.573 15.3625 100.515 15.6975 100.515 16.0618C100.515 17.0138 100.786 17.7778 101.328 18.3537C101.87 18.9178 102.6 19.1999 103.519 19.1999C104.297 19.1999 104.922 18.9061 105.393 18.3184C105.864 17.719 106.1 16.9257 106.1 15.9384C106.1 15.0334 105.894 14.3282 105.481 13.8229C105.081 13.3057 104.527 13.0471 103.82 13.0471C103.443 13.0471 103.142 13.1177 102.918 13.2587C102.695 13.3997 102.465 13.5878 102.229 13.8229C102.041 13.9991 101.899 14.1578 101.805 14.2989C101.722 14.4399 101.634 14.5515 101.54 14.6338C101.445 14.7043 101.322 14.7396 101.169 14.7396C101.004 14.7396 100.868 14.6926 100.762 14.5986C100.668 14.4928 100.621 14.3165 100.621 14.0697C100.621 13.7993 100.703 13.5231 100.868 13.2411C101.045 12.9472 101.275 12.6828 101.557 12.4477C101.852 12.2009 102.176 12.0011 102.53 11.8483C102.883 11.6955 103.254 11.6191 103.643 11.6191C104.48 11.6191 105.199 11.8013 105.8 12.1657C106.401 12.5183 106.86 13.0236 107.178 13.6818C107.508 14.3282 107.673 15.0981 107.673 15.9913C107.673 16.861 107.491 17.6485 107.125 18.3537C106.772 19.0471 106.289 19.5995 105.676 20.0109C105.063 20.4105 104.362 20.6103 103.572 20.6103Z" fill="#F97316"/>
<path d="M92.6779 20.6103C91.7824 20.6103 90.9811 20.4222 90.274 20.0461C89.5788 19.6583 89.0308 19.1294 88.6302 18.4595C88.2413 17.7778 88.0469 17.0021 88.0469 16.1323C88.0469 15.4742 88.1647 14.8806 88.4004 14.3517C88.6479 13.8111 88.9542 13.3469 89.3195 12.959C89.6848 12.5711 90.0501 12.2773 90.4154 12.0775C90.7925 11.866 91.1107 11.7602 91.3699 11.7602C91.4995 11.7602 91.6056 11.7778 91.6881 11.8131C91.7824 11.8483 91.859 11.9071 91.9179 11.9894C91.9768 12.0599 92.0063 12.1598 92.0063 12.2891C92.0063 12.5241 91.9532 12.7357 91.8472 12.9237C91.7529 13.1118 91.5526 13.2881 91.2462 13.4526C90.8691 13.6759 90.5627 13.9228 90.3271 14.1931C90.0914 14.4516 89.9146 14.7396 89.7968 15.0569C89.6789 15.3625 89.62 15.6975 89.62 16.0618C89.62 17.0138 89.891 17.7778 90.4331 18.3537C90.9752 18.9178 91.7058 19.1999 92.6249 19.1999C93.4026 19.1999 94.0272 18.9061 94.4985 18.3184C94.9699 17.719 95.2056 16.9257 95.2056 15.9384C95.2056 15.0334 94.9994 14.3282 94.5869 13.8229C94.1863 13.3057 93.6324 13.0471 92.9254 13.0471C92.5483 13.0471 92.2478 13.1177 92.0239 13.2587C91.8 13.3997 91.5703 13.5878 91.3346 13.8229C91.146 13.9991 91.0046 14.1578 90.9104 14.2989C90.8279 14.4399 90.7395 14.5515 90.6452 14.6338C90.5509 14.7043 90.4272 14.7396 90.274 14.7396C90.1091 14.7396 89.9735 14.6926 89.8675 14.5986C89.7732 14.4928 89.7261 14.3165 89.7261 14.0697C89.7261 13.7993 89.8086 13.5231 89.9735 13.2411C90.1503 12.9472 90.3801 12.6828 90.6629 12.4477C90.9575 12.2009 91.2815 12.0011 91.6351 11.8483C91.9886 11.6955 92.3598 11.6191 92.7486 11.6191C93.5853 11.6191 94.3041 11.8013 94.9051 12.1657C95.5061 12.5183 95.9656 13.0236 96.2838 13.6818C96.6137 14.3282 96.7787 15.0981 96.7787 15.9913C96.7787 16.861 96.5961 17.6485 96.2308 18.3537C95.8773 19.0471 95.3941 19.5995 94.7814 20.0109C94.1686 20.4105 93.4674 20.6103 92.6779 20.6103Z" fill="#F97316"/>
<path d="M83.3699 20.5575C82.5333 20.5575 81.8145 20.393 81.2135 20.0639C80.6125 19.7231 80.147 19.2529 79.8171 18.6535C79.4989 18.0424 79.3398 17.3313 79.3398 16.5203C79.3398 15.8269 79.4754 15.1805 79.7464 14.5811C80.0292 13.9817 80.4122 13.4587 80.8953 13.012C81.3784 12.5537 81.9382 12.2011 82.5745 11.9543C83.2108 11.6957 83.8825 11.5664 84.5896 11.5664C84.8252 11.5664 85.0432 11.6017 85.2436 11.6722C85.4557 11.731 85.6206 11.8367 85.7385 11.9895C85.8681 12.1423 85.9329 12.3597 85.9329 12.6418C85.9329 12.8534 85.8799 13.0297 85.7738 13.1707C85.6796 13.3117 85.5323 13.3823 85.3319 13.3823C85.2023 13.3823 85.0963 13.3646 85.0138 13.3294C84.9431 13.2824 84.8606 13.2412 84.7663 13.206C84.6838 13.159 84.5424 13.1354 84.3421 13.1354C83.694 13.1354 83.1107 13.2882 82.5922 13.5938C82.0855 13.8994 81.6789 14.3166 81.3726 14.8455C81.078 15.3744 80.9307 15.9797 80.9307 16.6614C80.9307 17.1433 81.0249 17.5605 81.2135 17.9131C81.4138 18.2657 81.6966 18.5419 82.0619 18.7417C82.439 18.9415 82.875 19.0414 83.3699 19.0414C83.8884 19.0414 84.2832 18.9885 84.5542 18.8827C84.837 18.7652 85.0491 18.6359 85.1905 18.4949C85.3319 18.3421 85.4557 18.2128 85.5617 18.107C85.6678 17.9895 85.8033 17.9307 85.9683 17.9307C86.1332 17.9307 86.2629 17.9836 86.3571 18.0894C86.4514 18.1952 86.4985 18.3421 86.4985 18.5301C86.4985 18.9297 86.3571 19.2823 86.0743 19.5879C85.8033 19.8817 85.4321 20.1168 84.9607 20.2931C84.4894 20.4694 83.9591 20.5575 83.3699 20.5575Z" fill="#F97316"/>
<path d="M69.7363 20.5572C69.536 20.5572 69.3534 20.4867 69.1884 20.3457C69.0352 20.2046 68.9115 19.9872 68.8172 19.6934C68.7229 19.3995 68.6758 19.0293 68.6758 18.5827C68.6758 17.3486 68.7465 16.2438 68.8879 15.2683C69.0293 14.2928 69.1825 13.4055 69.3475 12.6062C69.5242 11.7953 69.6479 11.0548 69.7187 10.3849C69.754 10.0323 69.7658 9.70322 69.754 9.39764C69.754 9.09206 69.7481 8.8041 69.7363 8.53378C69.7363 8.25171 69.7481 7.99314 69.7717 7.75808C69.7952 7.55827 69.8601 7.38198 69.9661 7.22919C70.0722 7.0764 70.243 7 70.4787 7C70.738 7 70.9383 7.0999 71.0797 7.29971C71.2211 7.49951 71.3154 7.82272 71.3625 8.26934C71.4214 8.7042 71.4096 9.29774 71.3271 10.0499C71.2447 10.7904 71.115 11.5896 70.9383 12.4476C70.7733 13.3055 70.6201 14.2164 70.4787 15.1802C70.3491 16.1322 70.2961 17.1194 70.3196 18.142L69.9308 17.8423C70.52 16.2908 71.062 15.0568 71.5569 14.14C72.0636 13.2233 72.5527 12.5651 73.024 12.1655C73.4954 11.7541 73.9667 11.5485 74.4381 11.5485C74.9566 11.5485 75.3513 11.713 75.6224 12.0421C75.8934 12.3712 76.0996 12.8472 76.241 13.4701C76.3824 14.0813 76.4885 14.8158 76.5592 15.6738C76.6417 16.426 76.7183 17.0313 76.789 17.4897C76.8715 17.9363 76.9598 18.2948 77.0541 18.5651C77.1484 18.8236 77.2485 19.0528 77.3546 19.2526C77.4135 19.3467 77.4606 19.4466 77.496 19.5523C77.5314 19.6581 77.549 19.7698 77.549 19.8873C77.549 20.0871 77.4783 20.2516 77.3369 20.3809C77.2073 20.5102 77.0364 20.5749 76.8243 20.5749C76.5297 20.5749 76.2646 20.4103 76.0289 20.0812C75.7932 19.7404 75.5988 19.2938 75.4456 18.7414C75.2924 18.1772 75.1864 17.5719 75.1274 16.9255C75.0685 16.1851 75.0037 15.5798 74.933 15.1097C74.8623 14.6395 74.7798 14.2576 74.6855 13.9637C74.6031 13.6581 74.4911 13.3937 74.3497 13.1704C74.1023 13.1939 73.7664 13.476 73.3422 14.0166C72.9298 14.5573 72.482 15.3212 71.9988 16.3085C71.5275 17.2957 71.0738 18.4769 70.6378 19.852C70.5435 20.1341 70.4198 20.3222 70.2666 20.4162C70.1252 20.5102 69.9484 20.5572 69.7363 20.5572Z" fill="black"/>
<path d="M62.7588 20.5752C62.1814 20.5752 61.6688 20.4929 61.221 20.3284C60.7732 20.1638 60.4138 19.9581 60.1428 19.7113C59.8835 19.4528 59.7539 19.1766 59.7539 18.8827C59.7539 18.7417 59.7893 18.6183 59.86 18.5125C59.9307 18.4067 60.0485 18.3538 60.2135 18.3538C60.3313 18.3538 60.4433 18.3891 60.5493 18.4596C60.6554 18.5301 60.785 18.6124 60.9382 18.7064C61.0914 18.7887 61.2917 18.8651 61.5392 18.9356C61.7984 19.0061 62.146 19.0414 62.582 19.0414C63.2419 19.0414 63.7781 18.8768 64.1905 18.5478C64.603 18.2069 64.8092 17.631 64.8092 16.8201C64.8092 16.2559 64.709 15.7505 64.5087 15.3039C64.3084 14.8455 64.0256 14.4518 63.6603 14.1227C63.3067 13.7936 62.9002 13.5409 62.4406 13.3646C61.9811 13.1883 61.4861 13.1002 60.9559 13.1002C60.6848 13.1002 60.4197 13.1296 60.1604 13.1883C59.9012 13.2471 59.6773 13.2765 59.4888 13.2765C59.3474 13.2765 59.2177 13.2471 59.0999 13.1883C58.9938 13.1178 58.9114 13.0238 58.8524 12.9063C58.7935 12.7887 58.7641 12.6712 58.7641 12.5537C58.7641 12.2363 58.929 11.9954 59.259 11.8309C59.5889 11.6546 60.131 11.5664 60.8852 11.5664C61.6629 11.5664 62.3817 11.6898 63.0416 11.9366C63.7133 12.1834 64.2966 12.5478 64.7915 13.0297C65.2982 13.4998 65.693 14.0698 65.9758 14.7398C66.2586 15.4097 66.4 16.1619 66.4 16.9963C66.4 17.537 66.3116 18.0306 66.1349 18.4772C65.9581 18.9121 65.7048 19.2882 65.3748 19.6055C65.0566 19.9229 64.6737 20.1638 64.2259 20.3284C63.7781 20.4929 63.2891 20.5752 62.7588 20.5752ZM59.5418 25.0002C59.4004 25.0002 59.2708 24.9708 59.1529 24.9121C59.0351 24.8651 58.9467 24.7828 58.8878 24.6653C58.8289 24.5477 58.7994 24.4008 58.7994 24.2245C58.7994 24.0482 58.823 23.8837 58.8701 23.7309C58.929 23.5781 58.9938 23.3959 59.0646 23.1844C59.1353 22.9728 59.1942 22.7025 59.2413 22.3734C59.3002 22.0443 59.3297 21.6212 59.3297 21.1041C59.3297 20.2461 59.2472 19.3881 59.0822 18.5301C58.929 17.6722 58.77 16.8024 58.605 15.9209C58.44 15.0277 58.3516 14.1345 58.3398 13.2412C58.3398 12.9474 58.3929 12.73 58.4989 12.5889C58.6168 12.4361 58.7817 12.3597 58.9938 12.3597C59.1824 12.3597 59.3474 12.4244 59.4888 12.5537C59.642 12.6712 59.7598 12.8357 59.8423 13.0473C59.9366 13.2471 59.9837 13.4704 59.9837 13.7172C59.9837 14.4224 60.0308 15.0923 60.1251 15.727C60.2194 16.3499 60.3313 16.9611 60.4609 17.5605C60.5906 18.1599 60.7025 18.7593 60.7968 19.3587C60.8911 19.9581 60.9382 20.5752 60.9382 21.2098C60.9382 21.7857 60.9087 22.3088 60.8498 22.7789C60.7909 23.249 60.7025 23.6486 60.5847 23.9777C60.4786 24.3068 60.3372 24.5595 60.1604 24.7358C59.9837 24.9121 59.7775 25.0002 59.5418 25.0002Z" fill="black"/>
<path d="M49.7879 20.5751C49.2576 20.5751 48.7922 20.4517 48.3915 20.2049C48.0026 19.9581 47.7021 19.6114 47.49 19.1647C47.2779 18.7181 47.1719 18.1951 47.1719 17.5957C47.1719 17.0316 47.2603 16.4615 47.437 15.8856C47.6138 15.3097 47.8612 14.7632 48.1794 14.2461C48.4976 13.7289 48.8746 13.2706 49.3106 12.871C49.7584 12.4713 50.2475 12.1599 50.7777 11.9366C51.308 11.7015 51.8736 11.584 52.4746 11.584C52.7456 11.584 52.9695 11.6545 53.1463 11.7955C53.3231 11.9366 53.4114 12.1481 53.4114 12.4302C53.4114 12.5712 53.3643 12.6947 53.27 12.8004C53.1875 12.8945 53.0579 12.9532 52.8812 12.9767C52.0563 13.0825 51.3316 13.3705 50.707 13.8406C50.0943 14.3107 49.617 14.8807 49.2753 15.5507C48.9336 16.2206 48.7627 16.9199 48.7627 17.6486C48.7627 17.9894 48.7922 18.3009 48.8511 18.583C48.91 18.8533 49.0396 19.2059 49.2399 19.6407L48.3208 18.4243C48.5918 18.6946 48.8157 18.8709 48.9925 18.9532C49.181 19.0355 49.4344 19.0766 49.7525 19.0766C50.5067 19.0766 51.1784 18.63 51.7676 17.7367C52.3686 16.8435 52.8046 15.5448 53.0756 13.8406C53.1227 13.6173 53.2052 13.4469 53.3231 13.3293C53.4409 13.2 53.6 13.1354 53.8003 13.1354C54.0831 13.1354 54.3247 13.2471 54.525 13.4704C54.7253 13.6819 54.8491 13.964 54.8962 14.3166C55.0023 14.9983 55.1142 15.6094 55.232 16.1501C55.3617 16.679 55.5443 17.1843 55.78 17.6662C56.0157 18.1363 56.3338 18.6359 56.7345 19.1647C56.8405 19.2823 56.8995 19.4174 56.9112 19.5702C56.923 19.723 56.8995 19.8758 56.8405 20.0286C56.7934 20.1696 56.7109 20.2872 56.5931 20.3812C56.487 20.4752 56.3574 20.5222 56.2042 20.5222C56.0392 20.5222 55.9037 20.487 55.7977 20.4165C55.6916 20.3459 55.5914 20.2578 55.4972 20.152C55.2733 19.8347 55.0612 19.5232 54.8608 19.2176C54.6605 18.9003 54.4779 18.5418 54.3129 18.1422C54.1479 17.7309 54.0065 17.249 53.8887 16.6966C53.7708 16.1324 53.6884 15.4684 53.6412 14.7044L54.2245 14.6868C54.0124 16.1324 53.6707 17.2901 53.1993 18.1599C52.728 19.0178 52.1918 19.6349 51.5908 20.011C50.9898 20.3871 50.3889 20.5751 49.7879 20.5751Z" fill="black"/>
<path d="M41.6157 20.6105C41.439 20.6105 41.2858 20.5576 41.1562 20.4518C41.0265 20.346 40.9264 20.1933 40.8557 19.9934C40.785 19.7936 40.7496 19.5703 40.7496 19.3235C40.7496 18.5596 40.7378 17.8074 40.7143 17.0669C40.6907 16.3265 40.6436 15.6448 40.5729 15.0219C40.5139 14.399 40.4256 13.8877 40.3077 13.4881C40.237 13.2178 40.184 13.0062 40.1486 12.8534C40.1251 12.7006 40.1133 12.5478 40.1133 12.3951C40.1133 12.1835 40.1663 12.0131 40.2724 11.8838C40.3902 11.7428 40.567 11.6722 40.8026 11.6722C41.0147 11.6722 41.2033 11.7721 41.3683 11.9719C41.545 12.16 41.6923 12.495 41.8102 12.9768C41.928 13.447 42.0105 14.1051 42.0576 14.9514C42.1048 15.7976 42.1165 16.8671 42.093 18.16L41.5273 17.6487C41.6098 16.5086 41.7925 15.5508 42.0753 14.7751C42.3699 13.9876 42.7175 13.3588 43.1182 12.8887C43.5306 12.4186 43.9666 12.0777 44.4262 11.8662C44.8857 11.6546 45.3394 11.5488 45.7872 11.5488C46.0818 11.5488 46.2821 11.6193 46.3882 11.7604C46.506 11.9014 46.5649 12.0718 46.5649 12.2716C46.5649 12.4362 46.5119 12.5949 46.4059 12.7476C46.2998 12.8887 46.1172 12.9945 45.8579 13.065C45.2452 13.206 44.7384 13.4587 44.3378 13.8231C43.9371 14.1757 43.6072 14.6223 43.348 15.1629C43.1005 15.6918 42.9061 16.2971 42.7647 16.9788C42.635 17.6605 42.5408 18.4009 42.4818 19.2001C42.4583 19.5762 42.4111 19.87 42.3404 20.0816C42.2815 20.2814 42.1931 20.4166 42.0753 20.4871C41.9575 20.5694 41.8043 20.6105 41.6157 20.6105Z" fill="black"/>
<path d="M34.833 24.9826C33.961 24.9826 33.2186 24.8827 32.6059 24.6829C31.9931 24.4831 31.5041 24.2186 31.1388 23.8896C30.7853 23.5605 30.526 23.2079 30.361 22.8318C30.1961 22.4674 30.1136 22.1266 30.1136 21.8093C30.1136 21.5037 30.1961 21.2451 30.361 21.0335C30.526 20.822 30.7322 20.7162 30.9797 20.7162C31.18 20.7162 31.3214 20.7632 31.4039 20.8572C31.4864 20.963 31.5276 21.1099 31.5276 21.298C31.5276 21.7329 31.6632 22.1148 31.9342 22.4439C32.2052 22.773 32.5764 23.0257 33.0478 23.202C33.5191 23.39 34.0671 23.4841 34.6916 23.4841C35.3986 23.4841 35.8818 23.2784 36.141 22.867C36.4003 22.4674 36.5299 21.8915 36.5299 21.1393C36.5299 20.4929 36.4886 19.9052 36.4062 19.3764C36.3237 18.8475 36.2176 18.348 36.088 17.8778C35.9702 17.4077 35.8582 16.9435 35.7522 16.4851C35.6461 16.0267 35.5636 15.539 35.5047 15.0218L36.1764 15.1981C36.0703 15.8563 35.8995 16.4263 35.6638 16.9082C35.4281 17.3783 35.1335 17.7662 34.78 18.0718C34.4383 18.3773 34.0494 18.6065 33.6134 18.7593C33.1892 18.9004 32.7414 18.9709 32.27 18.9709C31.6101 18.9709 31.0327 18.8475 30.5378 18.6007C30.0429 18.3538 29.6599 17.9954 29.3889 17.5252C29.1296 17.0551 29 16.4733 29 15.7799C29 15.2158 29.1119 14.681 29.3358 14.1756C29.5597 13.6702 29.8661 13.2236 30.255 12.8357C30.6556 12.4361 31.1034 12.1247 31.5983 11.9014C32.0933 11.6781 32.6118 11.5664 33.1538 11.5664C33.7548 11.5664 34.2261 11.6604 34.5679 11.8485C34.9214 12.0248 35.1747 12.254 35.3279 12.536C35.4811 12.8181 35.5577 13.1061 35.5577 13.3999C35.5577 13.5644 35.5106 13.7231 35.4163 13.8759C35.322 14.0287 35.2101 14.1051 35.0805 14.1051C34.9155 14.1051 34.7859 14.0522 34.6916 13.9464C34.6091 13.8406 34.5207 13.7231 34.4265 13.5938C34.344 13.4528 34.2261 13.3294 34.073 13.2236C33.9198 13.1178 33.6959 13.0649 33.4013 13.0649C33.0242 13.0649 32.6648 13.1413 32.323 13.2941C31.9813 13.4469 31.6749 13.6526 31.4039 13.9112C31.1447 14.1697 30.9384 14.4636 30.7853 14.7926C30.6438 15.1217 30.5731 15.4567 30.5731 15.7975C30.5731 16.3382 30.7087 16.7554 30.9797 17.0492C31.2507 17.3313 31.6808 17.4724 32.27 17.4724C32.8239 17.4724 33.3247 17.3254 33.7725 17.0316C34.232 16.726 34.5914 16.2441 34.8507 15.586C35.1217 14.9278 35.2572 14.0639 35.2572 12.9944C35.2572 12.7241 35.2985 12.5302 35.381 12.4126C35.4752 12.2833 35.6461 12.2187 35.8936 12.2187C36.2353 12.2187 36.4886 12.3539 36.6536 12.6242C36.8304 12.8945 36.9305 13.2001 36.9541 13.5409C37.013 14.2696 37.1014 14.9278 37.2192 15.5155C37.3489 16.0914 37.4785 16.6614 37.6081 17.2255C37.7495 17.7779 37.8615 18.3832 37.944 19.0414C38.0382 19.6878 38.0854 20.4459 38.0854 21.3156C38.0854 22.4557 37.8025 23.3489 37.2369 23.9953C36.6713 24.6535 35.87 24.9826 34.833 24.9826Z" fill="black"/>
<g clip-path="url(#clip0_10238_117)">
<path d="M20.5 7.00002C20.197 7.00002 19.8804 7.0401 19.5515 7.10117C18.4503 5.81745 16.8201 5 15 5C13.1799 5 11.5497 5.81745 10.4485 7.10113C10.1196 7.0401 9.80299 6.99997 9.50003 6.99997C6.46727 7.00002 4 9.46728 4 12.5C4 14.5781 5.17188 16.4673 7.01172 17.4014L7.00197 24.9575C7.0015 25.5029 7.21338 26.0156 7.59864 26.4014C7.98438 26.7876 8.49658 27 9.04202 27H20.96C22.085 27 23 26.085 23 24.96V17.394C24.833 16.4575 26 14.5713 26 12.5C26 9.46728 23.5327 7.00002 20.5 7.00002Z" fill="#F97316"/>
<path d="M20.9619 26H9.04397C8.76614 26 8.50491 25.8916 8.30813 25.6948C8.11181 25.4981 8.00344 25.2368 8.00391 24.9585L8.00649 23H22.002V24.96C22.002 25.5332 21.5352 26 20.9619 26Z" fill="#F5F5F5"/>
<path opacity="0.2" d="M9.00389 24.9585L9.0061 23H8.00649L8.00391 24.9585C8.00344 25.2368 8.11181 25.498 8.30813 25.6948C8.50491 25.8916 8.76614 26 9.04397 26H9.89536C9.65728 26 9.43332 25.8915 9.26471 25.6948C9.09638 25.4981 9.00347 25.2368 9.00389 24.9585Z" fill="#FCFCFC"/>
<path d="M21.0008 23V24.96C21.0008 25.5332 20.6007 26 20.1094 26H20.9608C21.534 26 22.0008 25.5333 22.0008 24.96V23H21.0008Z" fill="black" fill-opacity="0.06"/>
<path d="M22.3096 16.6157C22.2832 16.6265 22.2583 16.6392 22.2349 16.6543C22.1733 16.6925 22.1209 16.7439 22.0815 16.8047C22.0417 16.8652 22.0157 16.9337 22.0054 17.0054C22.0011 17.0332 21.9993 17.0613 22 17.0894V22H8.00581L8.01224 17.0962C8.01414 17.0099 7.99374 16.9246 7.95301 16.8486C7.91229 16.7725 7.85262 16.7083 7.77978 16.6621C7.75477 16.6463 7.72847 16.6328 7.70117 16.6215C6.06008 15.9039 5 14.2876 5 12.5C5 10.0185 7.01858 8.00002 9.5 8.00002C9.59699 8.00002 9.69936 8.01174 9.79982 8.01966C9.29394 8.89889 8.99999 9.91482 8.99999 11C8.99999 11.2764 9.22363 11.5 9.5 11.5C9.77638 11.5 10 11.2764 10 11C10 8.24316 12.2432 6 15 6C17.7569 6 20 8.2432 20 11C20 11.0657 20.0129 11.1307 20.038 11.1914C20.0631 11.2521 20.0999 11.3072 20.1464 11.3537C20.1928 11.4001 20.2479 11.4369 20.3086 11.4621C20.3693 11.4872 20.4343 11.5001 20.5 11.5C20.5657 11.5001 20.6307 11.4872 20.6914 11.4621C20.7521 11.4369 20.8072 11.4001 20.8537 11.3537C20.9001 11.3072 20.937 11.2521 20.9621 11.1914C20.9872 11.1307 21.0001 11.0657 21 11C21 9.91482 20.7061 8.89889 20.2002 8.01966C20.3007 8.01174 20.403 8.00002 20.5 8.00002C22.9815 8.00002 25 10.0186 25 12.5C25 14.2813 23.9444 15.8956 22.3096 16.6157Z" fill="#FCFCFC"/>
<path opacity="0.2" d="M15.0003 6.62503C17.2958 6.62503 19.2253 8.07952 19.9068 10.0752C19.4708 7.75969 17.4404 6 15.0003 6C12.5601 6 10.5297 7.75964 10.0938 10.0752C10.7751 8.07947 12.7047 6.62503 15.0003 6.62503Z" fill="#FCFCFC"/>
<path d="M20.499 8C20.402 8 20.2997 8.01172 20.1992 8.01964C20.2029 8.02606 20.2054 8.03314 20.2091 8.03952C22.2396 8.24136 23.8428 10.1525 23.8428 12.5C23.8428 14.2812 22.9092 15.8955 21.4635 16.6157C21.4402 16.6264 21.4182 16.6391 21.3974 16.6543C21.3417 16.6933 21.296 16.7451 21.2618 16.8046C21.2262 16.8664 21.2033 16.9346 21.1944 17.0053C21.1907 17.0331 21.1891 17.0612 21.1896 17.0893V21.9999H21.999V17.0893C21.9986 17.061 22 17.0331 22.0044 17.0053C22.0148 16.9336 22.0408 16.8651 22.0806 16.8046C22.12 16.7438 22.1723 16.6924 22.2339 16.6543C22.2576 16.6391 22.2826 16.6262 22.3086 16.6157C23.9434 15.8955 24.999 14.2813 24.999 12.5C24.999 10.0186 22.9805 8 20.499 8Z" fill="black" fill-opacity="0.06"/>
<path opacity="0.2" d="M8.81586 17.0142C8.80682 16.9411 8.78303 16.8707 8.74592 16.8071C8.71222 16.75 8.66816 16.7002 8.61463 16.6621C8.59273 16.6465 8.56946 16.6329 8.54511 16.6215C7.09377 15.9038 6.15627 14.2876 6.15627 12.5C6.15627 10.1525 7.75949 8.24141 9.79002 8.03956C9.79368 8.03314 9.79621 8.02606 9.79986 8.01969C9.69936 8.01172 9.59699 8 9.5 8C7.01853 8 5 10.0186 5 12.5C5 14.2876 6.06008 15.9038 7.70117 16.6216C7.7285 16.6328 7.75489 16.6465 7.77978 16.6621C7.83895 16.6995 7.88955 16.7489 7.92824 16.8072C7.98516 16.8927 8.01448 16.9936 8.01224 17.0962L8.00581 22.0001H8.81455L8.82022 17.0962C8.82075 17.0688 8.81929 17.0414 8.81586 17.0142Z" fill="#FCFCFC"/>
<path d="M10 15.5C10 15.2236 9.77639 15 9.50002 15C9.22364 15 9 15.2236 9 15.5C9 16.813 10.4483 18.6158 10.6133 18.8174C10.6976 18.9198 10.819 18.9845 10.951 18.9975C11.083 19.0105 11.2147 18.9707 11.3174 18.8867C11.5307 18.7114 11.5615 18.3965 11.3867 18.1826C10.8506 17.5293 10 16.2237 10 15.5ZM20.5 15C20.4344 15 20.3693 15.0129 20.3086 15.038C20.248 15.0631 20.1928 15.0999 20.1464 15.1464C20.0999 15.1928 20.0631 15.2479 20.038 15.3086C20.0129 15.3693 20 15.4343 20 15.5C20 16.2212 19.1494 17.5283 18.6133 18.1831C18.4385 18.3965 18.4697 18.7115 18.6832 18.8867C18.7724 18.9602 18.8845 19.0002 19 19C19.074 19.0001 19.147 18.9837 19.2139 18.9521C19.2808 18.9206 19.3398 18.8745 19.3868 18.8174C19.5518 18.6158 21.0001 16.813 21.0001 15.5C21.0001 15.4343 20.9872 15.3693 20.9621 15.3086C20.937 15.2479 20.9001 15.1928 20.8537 15.1464C20.8073 15.0999 20.7521 15.0631 20.6914 15.038C20.6308 15.0129 20.5657 15 20.5 15ZM15.0001 15C14.9344 15 14.8693 15.0129 14.8087 15.038C14.748 15.0631 14.6928 15.0999 14.6464 15.1464C14.6 15.1928 14.5631 15.2479 14.538 15.3086C14.5129 15.3693 14.5 15.4343 14.5 15.5V18.5C14.5 18.7764 14.7237 19 15.0001 19C15.2764 19 15.5001 18.7764 15.5001 18.5V15.5C15.5001 15.4343 15.4872 15.3693 15.4621 15.3086C15.437 15.248 15.4001 15.1928 15.3537 15.1464C15.3072 15.0999 15.2521 15.0631 15.1914 15.038C15.1308 15.0129 15.0657 15 15.0001 15Z" fill="#F97316"/>
</g>
<defs>
<clipPath id="clip0_10238_117">
<rect width="22" height="22" fill="white" transform="translate(4 5)"/>
</clipPath>
</defs>
</svg>
