<svg width="32" height="32" viewBox="0 0 32 32" fill="none" xmlns="http://www.w3.org/2000/svg">
<rect width="32" height="32" fill="white"/>
<g clip-path="url(#clip0_10238_98)">
<path d="M21.5 7.00002C21.197 7.00002 20.8804 7.0401 20.5515 7.10117C19.4503 5.81745 17.8201 5 16 5C14.1799 5 12.5497 5.81745 11.4485 7.10113C11.1196 7.0401 10.803 6.99997 10.5 6.99997C7.46727 7.00002 5 9.46728 5 12.5C5 14.5781 6.17188 16.4673 8.01172 17.4014L8.00197 24.9575C8.0015 25.5029 8.21338 26.0156 8.59864 26.4014C8.98438 26.7876 9.49658 27 10.042 27H21.96C23.085 27 24 26.085 24 24.96V17.394C25.833 16.4575 27 14.5713 27 12.5C27 9.46728 24.5327 7.00002 21.5 7.00002Z" fill="#F97316"/>
<path d="M21.9619 26H10.044C9.76614 26 9.50491 25.8916 9.30813 25.6948C9.11181 25.4981 9.00344 25.2368 9.00391 24.9585L9.00649 23H23.002V24.96C23.002 25.5332 22.5352 26 21.9619 26Z" fill="#F5F5F5"/>
<path opacity="0.2" d="M10.0039 24.9585L10.0061 23H9.00649L9.00391 24.9585C9.00344 25.2368 9.11181 25.498 9.30813 25.6948C9.50491 25.8916 9.76614 26 10.044 26H10.8954C10.6573 26 10.4333 25.8915 10.2647 25.6948C10.0964 25.4981 10.0035 25.2368 10.0039 24.9585Z" fill="#FCFCFC"/>
<path d="M22.0008 23V24.96C22.0008 25.5332 21.6007 26 21.1094 26H21.9608C22.534 26 23.0008 25.5333 23.0008 24.96V23H22.0008Z" fill="black" fill-opacity="0.06"/>
<path d="M23.3096 16.6157C23.2832 16.6265 23.2583 16.6392 23.2349 16.6543C23.1733 16.6925 23.1209 16.7439 23.0815 16.8047C23.0417 16.8652 23.0157 16.9337 23.0054 17.0054C23.0011 17.0332 22.9993 17.0613 23 17.0894V22H9.00581L9.01224 17.0962C9.01414 17.0099 8.99374 16.9246 8.95301 16.8486C8.91229 16.7725 8.85262 16.7083 8.77978 16.6621C8.75477 16.6463 8.72847 16.6328 8.70117 16.6215C7.06008 15.9039 6 14.2876 6 12.5C6 10.0185 8.01858 8.00002 10.5 8.00002C10.597 8.00002 10.6994 8.01174 10.7998 8.01966C10.2939 8.89889 9.99999 9.91482 9.99999 11C9.99999 11.2764 10.2236 11.5 10.5 11.5C10.7764 11.5 11 11.2764 11 11C11 8.24316 13.2432 6 16 6C18.7569 6 21 8.2432 21 11C21 11.0657 21.0129 11.1307 21.038 11.1914C21.0631 11.2521 21.0999 11.3072 21.1464 11.3537C21.1928 11.4001 21.2479 11.4369 21.3086 11.4621C21.3693 11.4872 21.4344 11.5001 21.5 11.5C21.5657 11.5001 21.6307 11.4872 21.6914 11.4621C21.7521 11.4369 21.8072 11.4001 21.8537 11.3537C21.9001 11.3072 21.937 11.2521 21.9621 11.1914C21.9872 11.1307 22.0001 11.0657 22 11C22 9.91482 21.7061 8.89889 21.2002 8.01966C21.3007 8.01174 21.403 8.00002 21.5 8.00002C23.9815 8.00002 26 10.0186 26 12.5C26 14.2813 24.9444 15.8956 23.3096 16.6157Z" fill="#FCFCFC"/>
<path opacity="0.2" d="M16.0003 6.62503C18.2958 6.62503 20.2253 8.07952 20.9068 10.0752C20.4708 7.75969 18.4404 6 16.0003 6C13.5601 6 11.5297 7.75964 11.0938 10.0752C11.7751 8.07947 13.7047 6.62503 16.0003 6.62503Z" fill="#FCFCFC"/>
<path d="M21.499 8C21.402 8 21.2997 8.01172 21.1992 8.01964C21.2029 8.02606 21.2054 8.03314 21.2091 8.03952C23.2396 8.24136 24.8428 10.1525 24.8428 12.5C24.8428 14.2812 23.9092 15.8955 22.4635 16.6157C22.4402 16.6264 22.4182 16.6391 22.3974 16.6543C22.3417 16.6933 22.296 16.7451 22.2618 16.8046C22.2262 16.8664 22.2033 16.9346 22.1944 17.0053C22.1907 17.0331 22.1891 17.0612 22.1896 17.0893V21.9999H22.999V17.0893C22.9986 17.061 23 17.0331 23.0044 17.0053C23.0148 16.9336 23.0408 16.8651 23.0806 16.8046C23.12 16.7438 23.1723 16.6924 23.2339 16.6543C23.2576 16.6391 23.2826 16.6262 23.3086 16.6157C24.9434 15.8955 25.999 14.2813 25.999 12.5C25.999 10.0186 23.9805 8 21.499 8Z" fill="black" fill-opacity="0.06"/>
<path opacity="0.2" d="M9.81586 17.0142C9.80682 16.9411 9.78303 16.8707 9.74592 16.8071C9.71222 16.75 9.66816 16.7002 9.61463 16.6621C9.59273 16.6465 9.56946 16.6329 9.54511 16.6215C8.09377 15.9038 7.15627 14.2876 7.15627 12.5C7.15627 10.1525 8.75949 8.24141 10.79 8.03956C10.7937 8.03314 10.7962 8.02606 10.7999 8.01969C10.6994 8.01172 10.597 8 10.5 8C8.01853 8 6 10.0186 6 12.5C6 14.2876 7.06008 15.9038 8.70117 16.6216C8.7285 16.6328 8.75489 16.6465 8.77978 16.6621C8.83895 16.6995 8.88955 16.7489 8.92824 16.8072C8.98516 16.8927 9.01448 16.9936 9.01224 17.0962L9.00581 22.0001H9.81455L9.82022 17.0962C9.82075 17.0688 9.81929 17.0414 9.81586 17.0142Z" fill="#FCFCFC"/>
<path d="M11 15.5C11 15.2236 10.7764 15 10.5 15C10.2236 15 10 15.2236 10 15.5C10 16.813 11.4483 18.6158 11.6133 18.8174C11.6976 18.9198 11.819 18.9845 11.951 18.9975C12.083 19.0105 12.2147 18.9707 12.3174 18.8867C12.5307 18.7114 12.5615 18.3965 12.3867 18.1826C11.8506 17.5293 11 16.2237 11 15.5ZM21.5 15C21.4344 15 21.3693 15.0129 21.3086 15.038C21.248 15.0631 21.1928 15.0999 21.1464 15.1464C21.0999 15.1928 21.0631 15.2479 21.038 15.3086C21.0129 15.3693 21 15.4343 21 15.5C21 16.2212 20.1494 17.5283 19.6133 18.1831C19.4385 18.3965 19.4697 18.7115 19.6832 18.8867C19.7724 18.9602 19.8845 19.0002 20 19C20.074 19.0001 20.147 18.9837 20.2139 18.9521C20.2808 18.9206 20.3398 18.8745 20.3868 18.8174C20.5518 18.6158 22.0001 16.813 22.0001 15.5C22.0001 15.4343 21.9872 15.3693 21.9621 15.3086C21.937 15.2479 21.9001 15.1928 21.8537 15.1464C21.8073 15.0999 21.7521 15.0631 21.6914 15.038C21.6308 15.0129 21.5657 15 21.5 15ZM16.0001 15C15.9344 15 15.8693 15.0129 15.8087 15.038C15.748 15.0631 15.6928 15.0999 15.6464 15.1464C15.6 15.1928 15.5631 15.2479 15.538 15.3086C15.5129 15.3693 15.5 15.4343 15.5 15.5V18.5C15.5 18.7764 15.7237 19 16.0001 19C16.2764 19 16.5001 18.7764 16.5001 18.5V15.5C16.5001 15.4343 16.4872 15.3693 16.4621 15.3086C16.437 15.248 16.4001 15.1928 16.3537 15.1464C16.3072 15.0999 16.2521 15.0631 16.1914 15.038C16.1308 15.0129 16.0657 15 16.0001 15Z" fill="#F97316"/>
</g>
<defs>
<clipPath id="clip0_10238_98">
<rect width="22" height="22" fill="white" transform="translate(5 5)"/>
</clipPath>
</defs>
</svg>
